<svg xmlns="http://www.w3.org/2000/svg" viewBox="0 0 58.9 58.9"><defs><style>.cls-1{fill:#fff;}</style></defs><title>facebook icon</title><g id="Layer_2" data-name="Layer 2"><g id="Layer_1-2" data-name="Layer 1"><path class="cls-1" d="M48.1,0H10.8A10.81,10.81,0,0,0,0,10.8V48.1A10.8,10.8,0,0,0,10.8,58.9H31.31V36.29H23.7V27.47h7.61V21c0-7.54,4.61-11.65,11.34-11.65a61.54,61.54,0,0,1,6.8.35v7.88H44.78c-3.66,0-4.37,1.74-4.37,4.29v5.62h8.73L48,36.29h-7.6V58.9H48.1A10.79,10.79,0,0,0,58.9,48.1V10.8A10.8,10.8,0,0,0,48.1,0Z"/></g></g></svg>