<svg xmlns="http://www.w3.org/2000/svg" viewBox="0 0 58.9 58.9"><defs><style>.cls-1{fill:#fff;}</style></defs><title>instagram icon</title><g id="Layer_2" data-name="Layer 2"><g id="Layer_1-2" data-name="Layer 1"><path class="cls-1" d="M29.45,19.37A10.09,10.09,0,1,0,39.53,29.45,10.09,10.09,0,0,0,29.45,19.37Z"/><path class="cls-1" d="M38.83,9.44H20.07A11.76,11.76,0,0,0,8.33,21.19V37.72A11.76,11.76,0,0,0,20.07,49.46H38.83A11.76,11.76,0,0,0,50.57,37.72V21.19A11.76,11.76,0,0,0,38.83,9.44ZM29.45,42.89A13.44,13.44,0,1,1,42.89,29.45,13.46,13.46,0,0,1,29.45,42.89ZM42.68,19.21a2.79,2.79,0,1,1,2.79-2.79A2.78,2.78,0,0,1,42.68,19.21Z"/><path class="cls-1" d="M48.1,0H10.8A10.81,10.81,0,0,0,0,10.8V48.1A10.8,10.8,0,0,0,10.8,58.9H48.1A10.79,10.79,0,0,0,58.9,48.1V10.8A10.8,10.8,0,0,0,48.1,0Zm5.83,37.72a15.12,15.12,0,0,1-15.1,15.09H20.07A15.12,15.12,0,0,1,5,37.72V21.19a15.12,15.12,0,0,1,15.1-15.1H38.83a15.12,15.12,0,0,1,15.1,15.1Z"/></g></g></svg>